# xmcd
#
# Track frame offsets:
#	150
#	25521
#	44955
#	59469
#	76887
#	103510
#	114481
#	139618
#	154359
#	177317
#	196764
#
# Disc length: 2931 seconds
#
# Revision: 0
# Processed by: cddbd v1.5.2PL0 Copyright (c) Steve Scherf et al.
# Submitted via: dBpowerAMP V4.0
#
DISCID=8f0b710b
DTITLE=Steve Pryor - Cardboard Luck
DYEAR=1900
DGENRE=Blues
TTITLE0=Runaway Lullaby
TTITLE1=We Got Problems
TTITLE2=Lights Out
TTITLE3=Misery Kickin' In
TTITLE4=Stoppin' the Rain
TTITLE5=Midnight Booty Call
TTITLE6=Down in the Bottom
TTITLE7=That's a Touch I Like
TTITLE8=I Should Be Sorry
TTITLE9=Wait On Time
TTITLE10=Fade to Black
EXTD=Cardboard Luck\n\n\n
EXTT0=
EXTT1=
EXTT2=
EXTT3=
EXTT4=
EXTT5=
EXTT6=
EXTT7=
EXTT8=
EXTT9=
EXTT10=
PLAYORDER=
